<?xml version="1.0" encoding="UTF-8" standalone="no"?>
<!-- Created with Inkscape (http://www.inkscape.org/) -->

<svg
   xmlns:dc="http://purl.org/dc/elements/1.1/"
   xmlns:cc="http://creativecommons.org/ns#"
   xmlns:rdf="http://www.w3.org/1999/02/22-rdf-syntax-ns#"
   xmlns:svg="http://www.w3.org/2000/svg"
   xmlns="http://www.w3.org/2000/svg"
   xmlns:sodipodi="http://sodipodi.sourceforge.net/DTD/sodipodi-0.dtd"
   xmlns:inkscape="http://www.inkscape.org/namespaces/inkscape"
   width="500"
   height="500"
   viewBox="0 0 500 500"
   version="1.1"
   id="svg1235"
   inkscape:version="0.92.4 (5da689c313, 2019-01-14)"
   sodipodi:docname="logo.svg">
  <defs
     id="defs1229">
    <marker
       inkscape:stockid="DotS"
       orient="auto"
       refY="0.0"
       refX="0.0"
       id="marker3059"
       style="overflow:visible"
       inkscape:isstock="true">
      <path
         id="path3057"
         d="M -2.5,-1.0 C -2.5,1.7600000 -4.7400000,4.0 -7.5,4.0 C -10.260000,4.0 -12.5,1.7600000 -12.5,-1.0 C -12.5,-3.7600000 -10.260000,-6.0 -7.5,-6.0 C -4.7400000,-6.0 -2.5,-3.7600000 -2.5,-1.0 z "
         style="fill-rule:evenodd;stroke:#f6f6f6;stroke-width:1pt;stroke-opacity:1;fill:#f6f6f6;fill-opacity:1"
         transform="scale(0.2) translate(7.4, 1)" />
    </marker>
    <marker
       inkscape:stockid="DotS"
       orient="auto"
       refY="0.0"
       refX="0.0"
       id="marker3005"
       style="overflow:visible"
       inkscape:isstock="true">
      <path
         id="path3003"
         d="M -2.5,-1.0 C -2.5,1.7600000 -4.7400000,4.0 -7.5,4.0 C -10.260000,4.0 -12.5,1.7600000 -12.5,-1.0 C -12.5,-3.7600000 -10.260000,-6.0 -7.5,-6.0 C -4.7400000,-6.0 -2.5,-3.7600000 -2.5,-1.0 z "
         style="fill-rule:evenodd;stroke:#f6f6f6;stroke-width:1pt;stroke-opacity:1;fill:#f6f6f6;fill-opacity:1"
         transform="scale(0.2) translate(7.4, 1)" />
    </marker>
    <marker
       inkscape:stockid="DotS"
       orient="auto"
       refY="0.0"
       refX="0.0"
       id="marker2629"
       style="overflow:visible"
       inkscape:isstock="true">
      <path
         id="path2627"
         d="M -2.5,-1.0 C -2.5,1.7600000 -4.7400000,4.0 -7.5,4.0 C -10.260000,4.0 -12.5,1.7600000 -12.5,-1.0 C -12.5,-3.7600000 -10.260000,-6.0 -7.5,-6.0 C -4.7400000,-6.0 -2.5,-3.7600000 -2.5,-1.0 z "
         style="fill-rule:evenodd;stroke:#ffffff;stroke-width:1pt;stroke-opacity:1;fill:#ffffff;fill-opacity:1"
         transform="scale(0.2) translate(7.4, 1)" />
    </marker>
    <marker
       inkscape:isstock="true"
       style="overflow:visible"
       id="marker2381"
       refX="0.0"
       refY="0.0"
       orient="auto"
       inkscape:stockid="DotS">
      <path
         transform="scale(0.2) translate(7.4, 1)"
         style="fill-rule:evenodd;stroke:#84cc16;stroke-width:1pt;stroke-opacity:1;fill:#84cc16;fill-opacity:1"
         d="M -2.5,-1.0 C -2.5,1.7600000 -4.7400000,4.0 -7.5,4.0 C -10.260000,4.0 -12.5,1.7600000 -12.5,-1.0 C -12.5,-3.7600000 -10.260000,-6.0 -7.5,-6.0 C -4.7400000,-6.0 -2.5,-3.7600000 -2.5,-1.0 z "
         id="path2379" />
    </marker>
    <marker
       inkscape:stockid="DotS"
       orient="auto"
       refY="0.0"
       refX="0.0"
       id="marker2005"
       style="overflow:visible"
       inkscape:isstock="true">
      <path
         id="path2003"
         d="M -2.5,-1.0 C -2.5,1.7600000 -4.7400000,4.0 -7.5,4.0 C -10.260000,4.0 -12.5,1.7600000 -12.5,-1.0 C -12.5,-3.7600000 -10.260000,-6.0 -7.5,-6.0 C -4.7400000,-6.0 -2.5,-3.7600000 -2.5,-1.0 z "
         style="fill-rule:evenodd;stroke:#84cc16;stroke-width:1pt;stroke-opacity:1;fill:#84cc16;fill-opacity:1"
         transform="scale(0.2) translate(7.4, 1)" />
    </marker>
    <marker
       inkscape:stockid="DotS"
       orient="auto"
       refY="0.0"
       refX="0.0"
       id="marker1737"
       style="overflow:visible"
       inkscape:isstock="true">
      <path
         id="path1735"
         d="M -2.5,-1.0 C -2.5,1.7600000 -4.7400000,4.0 -7.5,4.0 C -10.260000,4.0 -12.5,1.7600000 -12.5,-1.0 C -12.5,-3.7600000 -10.260000,-6.0 -7.5,-6.0 C -4.7400000,-6.0 -2.5,-3.7600000 -2.5,-1.0 z "
         style="fill-rule:evenodd;stroke:#84cc16;stroke-width:1pt;stroke-opacity:1;fill:#84cc16;fill-opacity:1"
         transform="scale(0.2) translate(7.4, 1)" />
    </marker>
    <marker
       inkscape:stockid="DotS"
       orient="auto"
       refY="0.0"
       refX="0.0"
       id="DotS"
       style="overflow:visible"
       inkscape:isstock="true">
      <path
         id="path1456"
         d="M -2.5,-1.0 C -2.5,1.7600000 -4.7400000,4.0 -7.5,4.0 C -10.260000,4.0 -12.5,1.7600000 -12.5,-1.0 C -12.5,-3.7600000 -10.260000,-6.0 -7.5,-6.0 C -4.7400000,-6.0 -2.5,-3.7600000 -2.5,-1.0 z "
         style="fill-rule:evenodd;stroke:#84cc16;stroke-width:1pt;stroke-opacity:1;fill:#84cc16;fill-opacity:1"
         transform="scale(0.2) translate(7.4, 1)" />
    </marker>
    <marker
       inkscape:stockid="DotM"
       orient="auto"
       refY="0.0"
       refX="0.0"
       id="DotM"
       style="overflow:visible"
       inkscape:isstock="true">
      <path
         id="path1453"
         d="M -2.5,-1.0 C -2.5,1.7600000 -4.7400000,4.0 -7.5,4.0 C -10.260000,4.0 -12.5,1.7600000 -12.5,-1.0 C -12.5,-3.7600000 -10.260000,-6.0 -7.5,-6.0 C -4.7400000,-6.0 -2.5,-3.7600000 -2.5,-1.0 z "
         style="fill-rule:evenodd;stroke:#4c4c4c;stroke-width:1pt;stroke-opacity:1;fill:#4c4c4c;fill-opacity:1"
         transform="scale(0.4) translate(7.4, 1)" />
    </marker>
    <marker
       inkscape:stockid="DotL"
       orient="auto"
       refY="0.0"
       refX="0.0"
       id="DotL"
       style="overflow:visible"
       inkscape:isstock="true">
      <path
         id="path1450"
         d="M -2.5,-1.0 C -2.5,1.7600000 -4.7400000,4.0 -7.5,4.0 C -10.260000,4.0 -12.5,1.7600000 -12.5,-1.0 C -12.5,-3.7600000 -10.260000,-6.0 -7.5,-6.0 C -4.7400000,-6.0 -2.5,-3.7600000 -2.5,-1.0 z "
         style="fill-rule:evenodd;stroke:#4c4c4c;stroke-width:1pt;stroke-opacity:1;fill:#4c4c4c;fill-opacity:1"
         transform="scale(0.8) translate(7.4, 1)" />
    </marker>
  </defs>
  <sodipodi:namedview
     id="base"
     pagecolor="#ffffff"
     bordercolor="#666666"
     borderopacity="1.0"
     inkscape:pageopacity="0.0"
     inkscape:pageshadow="2"
     inkscape:zoom="0.81188438"
     inkscape:cx="203.69278"
     inkscape:cy="285.38819"
     inkscape:document-units="px"
     inkscape:current-layer="layer1"
     showgrid="true"
     inkscape:pagecheckerboard="true"
     units="px"
     inkscape:window-width="1920"
     inkscape:window-height="1017"
     inkscape:window-x="-8"
     inkscape:window-y="-8"
     inkscape:window-maximized="1"
     inkscape:snap-bbox="true"
     inkscape:bbox-paths="true"
     inkscape:snap-grids="true"
     objecttolerance="10000"
     guidetolerance="10000">
    <inkscape:grid
       type="xygrid"
       id="grid984"
       spacingx="10"
       spacingy="10" />
  </sodipodi:namedview>
  <metadata
     id="metadata1232">
    <rdf:RDF>
      <cc:Work
         rdf:about="">
        <dc:format>image/svg+xml</dc:format>
        <dc:type
           rdf:resource="http://purl.org/dc/dcmitype/StillImage" />
        <dc:title />
      </cc:Work>
    </rdf:RDF>
  </metadata>
  <g
     inkscape:label="Layer 1"
     inkscape:groupmode="layer"
     id="layer1"
     transform="translate(0,-164.70832)">
    <path
       style="fill:#ffffff;fill-opacity:1;stroke:#ffffff;stroke-width:18.94697571;stroke-linecap:round;stroke-linejoin:round;stroke-miterlimit:4;stroke-dasharray:none;stroke-opacity:1;paint-order:normal"
       d="M 164.6743,266.09702 366.50551,466.94715 V 266.09702 Z"
       id="rect1367-0-7-9"
       inkscape:connector-curvature="0"
       inkscape:export-filename="C:\repos\onerdy.com\public\favicon\mstile-150x150.png"
       inkscape:export-xdpi="28.799999"
       inkscape:export-ydpi="28.799999" />
    <path
       style="fill:#ffffff;fill-opacity:1;stroke:#ffffff;stroke-width:18.94697571;stroke-linecap:round;stroke-linejoin:round;stroke-miterlimit:4;stroke-dasharray:none;stroke-opacity:1;paint-order:markers stroke fill"
       d="M 133.49447,362.46918 335.32565,563.31965 H 133.49447 Z"
       id="rect1367-9-3-8-4"
       inkscape:connector-curvature="0"
       inkscape:export-filename="C:\repos\onerdy.com\public\favicon\mstile-150x150.png"
       inkscape:export-xdpi="28.799999"
       inkscape:export-ydpi="28.799999" />
    <path
       style="fill:none;stroke:#84cc16;stroke-width:30;stroke-linecap:round;stroke-linejoin:miter;stroke-miterlimit:4;stroke-dasharray:none;stroke-opacity:1"
       d="M 45.152871,294.70832 V 618.73948"
       id="path1318-7-5-5"
       inkscape:connector-curvature="0"
       inkscape:export-filename="C:\repos\onerdy.com\public\favicon\mstile-150x150.png"
       inkscape:export-xdpi="28.799999"
       inkscape:export-ydpi="28.799999" />
    <path
       style="fill:none;stroke:#84cc16;stroke-width:30;stroke-linecap:round;stroke-linejoin:round;stroke-miterlimit:4;stroke-dasharray:none;stroke-opacity:1"
       d="M 454.8473,209.68686 V 534.70832"
       id="path1318-4-6-7-3"
       inkscape:connector-curvature="0"
       inkscape:export-filename="C:\repos\onerdy.com\public\favicon\mstile-150x150.png"
       inkscape:export-xdpi="28.799999"
       inkscape:export-ydpi="28.799999" />
    <path
       style="fill:none;stroke:#84cc16;stroke-width:30.00000191;stroke-linecap:round;stroke-linejoin:miter;stroke-miterlimit:4;stroke-dasharray:none;stroke-opacity:1"
       d="M 47.826702,619.72639 H 413.20003"
       id="path1318-1-3-9-1"
       inkscape:connector-curvature="0"
       inkscape:export-filename="C:\repos\onerdy.com\public\favicon\mstile-150x150.png"
       inkscape:export-xdpi="28.799999"
       inkscape:export-ydpi="28.799999" />
    <path
       style="fill:none;stroke:#84cc16;stroke-width:30;stroke-linecap:round;stroke-linejoin:miter;stroke-miterlimit:4;stroke-dasharray:none;stroke-opacity:1"
       d="M 86.800003,209.69049 H 453.98676"
       id="path1318-4-5-3-1-6"
       inkscape:connector-curvature="0"
       sodipodi:nodetypes="cc"
       inkscape:export-filename="C:\repos\onerdy.com\public\favicon\mstile-150x150.png"
       inkscape:export-xdpi="28.799999"
       inkscape:export-ydpi="28.799999" />
    <ellipse
       style="fill:none;fill-opacity:1;stroke:#84cc16;stroke-width:20;stroke-linecap:round;stroke-linejoin:round;stroke-miterlimit:4;stroke-dasharray:none;stroke-opacity:1;paint-order:normal"
       id="path3471-9-4-2"
       cx="45.152771"
       cy="209.69028"
       rx="35.152771"
       ry="34.98193"
       inkscape:export-filename="C:\repos\onerdy.com\public\favicon\mstile-150x150.png"
       inkscape:export-xdpi="28.799999"
       inkscape:export-ydpi="28.799999" />
    <ellipse
       style="fill:none;fill-opacity:1;stroke:#84cc16;stroke-width:20;stroke-linecap:round;stroke-linejoin:round;stroke-miterlimit:4;stroke-dasharray:none;stroke-opacity:1;paint-order:normal"
       id="path3471-1-5-3-6"
       cx="454.84723"
       cy="619.72638"
       rx="35.152771"
       ry="34.98193"
       inkscape:export-filename="C:\repos\onerdy.com\public\favicon\mstile-150x150.png"
       inkscape:export-xdpi="28.799999"
       inkscape:export-ydpi="28.799999" />
  </g>
</svg>
